<?xml version="1.0" standalone="no"?>
<!DOCTYPE svg PUBLIC "-//W3C//DTD SVG 20010904//EN"
 "http://www.w3.org/TR/2001/REC-SVG-20010904/DTD/svg10.dtd">
<svg version="1.0" xmlns="http://www.w3.org/2000/svg"
 width="2872.000000pt" height="823.000000pt" viewBox="0 0 2872.000000 823.000000"
 preserveAspectRatio="xMidYMid meet">

<g transform="translate(0.000000,823.000000) scale(0.100000,-0.100000)"
fill="#000000" stroke="none">
<path d="M5945 8197 c-7 -34 6 -99 25 -127 7 -12 10 -8 10 16 0 16 7 39 15 50
14 19 15 19 56 -5 l42 -23 -23 33 c-65 95 -114 117 -125 56z"/>
<path d="M6348 7650 c70 -116 155 -208 347 -370 169 -143 240 -203 245 -209
11 -13 72 -53 75 -49 12 11 -28 316 -62 481 -17 81 -41 110 -29 35 42 -255 57
-428 39 -428 -10 0 -235 186 -376 309 -100 86 -173 160 -231 231 l-28 35 20
-35z"/>
<path d="M5777 7659 c-123 -18 -187 -48 -174 -83 11 -29 55 -38 106 -22 128
42 377 35 506 -14 15 -6 30 -9 32 -6 2 2 -7 22 -21 44 -23 37 -31 42 -98 57
-74 17 -222 35 -268 34 -14 -1 -51 -5 -83 -10z"/>
<path d="M7690 7616 c-4 -13 -11 -133 -13 -267 -9 -440 -70 -732 -160 -764
-28 -9 -34 -5 -177 145 -82 85 -149 148 -150 139 0 -9 54 -73 121 -142 74 -78
118 -131 113 -138 -4 -7 -3 -9 3 -6 5 3 29 -14 53 -38 26 -27 53 -45 67 -45
95 0 173 374 173 831 0 178 9 239 36 239 18 0 18 20 -2 48 -20 29 -52 28 -64
-2z"/>
<path d="M7235 6429 c-22 -41 -20 -131 3 -204 l19 -60 -1 70 c0 67 8 95 44
152 13 20 12 25 -10 48 -30 32 -36 32 -55 -6z"/>
<path d="M7405 6431 c22 -10 58 -36 79 -57 l39 -39 -28 52 c-28 52 -45 63
-100 63 -30 0 -30 -1 10 -19z"/>
<path d="M7740 6205 c0 -32 3 -35 38 -41 73 -14 204 -67 284 -116 20 -13 68
-42 107 -66 39 -24 71 -46 71 -51 0 -4 6 -8 13 -8 6 -1 59 -26 117 -57 58 -31
159 -75 225 -98 66 -23 122 -46 123 -50 2 -4 7 -6 11 -3 9 5 139 -43 201 -75
46 -23 54 -11 21 32 -31 38 -121 81 -316 148 -194 67 -333 133 -494 235 -145
92 -215 129 -299 159 -96 34 -102 34 -102 -9z"/>
<path d="M20260 6200 l-385 -5 0 -2165 0 -2165 414 -3 c294 -1 418 1 427 9 11
9 14 172 17 918 2 498 6 925 9 948 3 24 10 48 15 55 6 7 14 24 18 37 4 13 20
45 35 72 16 26 27 49 24 51 -2 3 26 36 63 74 37 38 68 74 68 79 1 6 7 9 15 7
7 -2 16 1 19 5 8 11 117 59 154 69 17 4 24 9 17 14 -6 4 49 5 122 3 132 -4
187 -16 266 -57 54 -28 184 -175 188 -211 0 -5 4 -17 7 -25 16 -39 38 -132 47
-200 7 -48 10 -390 10 -946 0 -479 3 -879 6 -888 6 -14 47 -16 414 -16 364 0
410 2 425 16 15 15 16 102 12 978 -2 528 -6 972 -10 986 -4 14 -10 54 -12 90
-7 95 -15 146 -36 227 -10 40 -19 75 -19 78 0 4 -5 3 -12 -1 -7 -4 -8 -3 -4 4
10 17 -46 163 -61 157 -8 -2 -10 2 -6 12 5 12 3 14 -7 8 -9 -6 -11 -4 -5 4 4
8 -1 25 -14 42 -11 15 -21 32 -21 37 0 18 -158 173 -163 160 -4 -8 -6 -7 -6 4
-1 11 -6 15 -16 12 -9 -4 -15 0 -15 10 0 16 -87 65 -164 93 -98 34 -225 56
-356 60 -203 7 -328 -12 -443 -67 -22 -11 -44 -17 -48 -14 -5 3 -9 0 -9 -5 0
-6 -9 -11 -20 -11 -11 0 -20 -4 -20 -10 0 -10 -69 -44 -82 -42 -5 1 -8 -4 -8
-12 0 -8 -12 -19 -27 -24 -16 -6 -37 -18 -48 -27 -11 -9 -14 -14 -8 -10 8 4
11 1 7 -9 -3 -9 -11 -14 -17 -13 -7 1 -11 -4 -9 -11 1 -8 -2 -11 -8 -7 -5 3
-22 -7 -37 -24 -100 -105 -121 -130 -116 -134 2 -3 -13 -21 -34 -40 -33 -31
-40 -34 -54 -21 -8 8 -21 14 -27 14 -7 0 -12 5 -12 10 0 6 4 10 9 10 5 0 7 8
5 18 -3 9 -6 414 -7 899 -1 485 -4 884 -7 886 -11 11 -93 13 -460 7z"/>
<path d="M7641 6150 c-7 -22 -9 -44 -6 -49 7 -12 -40 -172 -65 -221 -28 -56
-25 -60 12 -16 36 44 89 150 107 217 11 40 11 51 -3 78 -9 17 -20 31 -25 31
-4 0 -13 -18 -20 -40z"/>
<path d="M7267 5933 c-45 -135 -72 -228 -137 -468 -116 -431 -177 -601 -278
-780 -25 -44 -59 -99 -76 -122 l-31 -41 -85 -7 c-332 -26 -640 -125 -905 -292
l-80 -50 -155 -12 c-232 -17 -389 -46 -810 -146 -124 -29 -273 -63 -333 -76
l-107 -22 -118 21 c-164 31 -335 42 -469 31 -190 -15 -293 -43 -498 -133 -57
-25 -125 -43 -241 -64 -191 -35 -268 -66 -323 -128 -84 -95 -136 -252 -129
-385 5 -82 14 -111 29 -88 5 8 9 32 9 54 1 93 36 193 109 307 57 91 135 125
371 163 115 19 169 36 280 88 247 115 592 141 924 70 96 -20 118 -17 478 68
529 125 710 156 915 160 l92 2 88 54 c281 173 563 267 883 293 130 11 116 2
197 130 100 158 182 377 284 755 72 267 109 394 160 546 39 116 39 117 22 148
-10 17 -21 31 -24 31 -3 0 -22 -48 -42 -107z"/>
<path d="M9282 5963 c-10 -4 -12 -78 -12 -348 1 -296 3 -344 17 -349 8 -3 264
-6 568 -6 512 0 554 -1 574 -17 l21 -18 0 -1660 c0 -913 3 -1670 6 -1683 l6
-22 434 0 c340 0 434 3 435 13 1 6 2 17 4 22 1 6 3 758 3 1672 l2 1663 24 15
c20 13 98 16 592 18 l569 2 3 339 c2 240 -1 343 -9 352 -9 12 -277 14 -1618
13 -883 0 -1612 -3 -1619 -6z"/>
<path d="M13496 5379 c-428 -55 -834 -247 -1139 -539 -152 -145 -282 -308
-360 -451 -13 -24 -43 -78 -66 -120 -48 -88 -112 -263 -147 -400 -70 -278 -73
-634 -8 -919 63 -279 206 -571 391 -800 72 -89 254 -267 338 -331 750 -573
1780 -563 2516 22 48 38 138 122 200 187 115 119 269 324 269 358 0 10 10 28
22 41 12 13 16 23 10 23 -7 0 -12 7 -12 15 0 8 4 15 9 15 5 0 21 26 35 58 15
31 36 75 46 97 31 64 108 304 136 422 36 151 44 413 19 597 -41 309 -143 581
-312 833 -331 496 -857 819 -1453 893 -99 12 -395 11 -494 -1z m-31 -581 c7
-39 9 -41 16 -20 12 32 28 24 67 -34 l32 -49 0 58 c0 31 4 57 10 57 6 0 10
-11 10 -24 0 -42 10 -56 42 -56 24 0 29 -4 26 -18 -4 -14 0 -18 16 -18 12 1
24 6 28 11 4 6 8 -2 8 -17 0 -19 -5 -28 -15 -28 -85 0 -304 -40 -410 -75 -16
-6 -17 -5 -5 4 11 8 12 11 2 11 -10 0 -10 4 2 16 25 24 19 27 -14 7 -28 -16
-33 -16 -58 -3 -61 35 -20 130 50 116 26 -5 28 -3 24 19 -3 14 0 25 5 25 5 0
9 -8 10 -17 0 -12 2 -13 6 -5 3 7 0 19 -7 27 -13 16 7 30 67 44 74 17 81 15
88 -31z m408 -35 c-9 -58 -14 -74 -22 -69 -5 3 -6 17 -3 32 3 16 -1 30 -9 35
-12 8 -11 12 5 24 25 19 34 12 29 -22z m117 10 c2 -2 -1 -12 -8 -21 -7 -9 -20
-32 -29 -49 -9 -18 -20 -33 -25 -33 -15 0 -8 32 13 58 15 20 17 27 7 30 -34 9
-39 13 -33 23 6 9 62 4 75 -8z m80 -54 c0 -5 9 -9 20 -9 21 0 25 -16 14 -57
-10 -36 -26 -27 -19 10 6 30 5 31 -10 13 -8 -11 -15 -23 -15 -28 0 -4 -5 -8
-11 -8 -7 0 -8 11 -4 30 8 37 -10 41 -19 5 -4 -14 -11 -23 -16 -20 -5 3 -7 11
-5 18 22 62 24 65 44 60 12 -3 21 -9 21 -14z m-891 -75 c13 -29 19 -50 13 -56
-9 -9 -52 68 -52 92 0 23 18 7 39 -36z m1034 20 c9 -4 17 -15 17 -26 0 -25
-18 -58 -31 -58 -6 0 -6 7 1 19 19 36 9 46 -15 16 -25 -30 -34 -21 -15 15 7
13 7 21 0 25 -5 3 -15 -5 -22 -19 -6 -14 -15 -26 -20 -26 -11 0 -10 4 8 44 15
29 20 33 38 25 12 -5 29 -12 39 -15z m-1081 -21 c28 -25 23 -68 -11 -92 -39
-28 -46 -27 -70 13 -28 44 -26 58 7 78 35 21 51 22 74 1z m793 7 c-3 -5 0 -10
9 -10 8 0 16 6 19 13 3 6 4 2 4 -10 -1 -27 -6 -28 -33 -8 -12 8 -25 11 -29 7
-5 -4 -5 -1 -1 6 4 6 14 12 22 12 8 0 12 -4 9 -10z m-963 -127 c10 -9 18 -27
18 -40 0 -28 -41 -73 -68 -73 -56 0 -74 67 -28 107 32 27 53 29 78 6z m703 7
c-192 -11 -369 -66 -512 -160 -38 -25 -42 -26 -18 -6 45 39 190 111 270 135
103 30 167 39 285 38 l105 0 -130 -7z m785 -2 c-1 -18 -58 -83 -66 -75 -4 3 1
18 10 31 9 14 16 32 16 41 0 8 9 15 20 15 11 0 20 -6 20 -12z m-570 -8 c17 -6
9 -7 -25 -3 -27 3 -52 7 -54 9 -8 7 54 2 79 -6z m54 -44 c48 -15 100 -33 115
-42 27 -16 22 -15 -66 16 -29 10 -98 26 -154 36 -229 38 -466 -15 -663 -149
-32 -22 -55 -34 -51 -28 12 20 140 98 202 125 143 60 233 76 398 71 104 -2
148 -9 219 -29z m3 28 c-3 -3 -12 -4 -19 -1 -8 3 -5 6 6 6 11 1 17 -2 13 -5z
m-108 -35 c83 -13 239 -64 229 -74 -3 -3 -35 6 -72 20 -300 113 -644 43 -912
-184 -16 -14 -8 -5 20 22 183 174 473 259 735 216z m211 1 c8 -5 11 -10 5 -10
-5 0 -17 5 -25 10 -8 5 -10 10 -5 10 6 0 17 -5 25 -10z m471 -23 c-13 -13 -26
-3 -16 12 3 6 11 8 17 5 6 -4 6 -10 -1 -17z m-1676 -17 c-5 -15 0 -19 26 -22
46 -4 50 -28 5 -28 -36 0 -50 -20 -25 -36 8 -4 8 -9 0 -17 -8 -8 -21 -1 -48
26 -37 37 -39 62 -3 39 18 -11 20 -9 20 21 0 19 3 37 6 40 12 12 25 -4 19 -23z
m1075 -10 c84 -23 232 -93 252 -118 14 -18 15 -18 -52 23 -144 87 -372 132
-540 106 -182 -29 -341 -106 -474 -231 -52 -49 -70 -62 -52 -38 15 20 58 62
94 92 113 91 236 150 382 181 94 21 293 13 390 -15z m570 1 c0 -6 -4 -13 -10
-16 -5 -3 -10 1 -10 9 0 9 5 16 10 16 6 0 10 -4 10 -9z m-637 -15 c42 -8 106
-27 144 -42 68 -26 196 -104 210 -127 4 -7 -9 0 -28 14 -142 106 -362 170
-538 156 -201 -16 -373 -94 -531 -241 -36 -34 -51 -46 -35 -27 127 143 305
242 495 274 59 10 214 6 283 -7z m757 -17 c0 -11 -61 -68 -72 -69 -16 0 -7 26
13 38 11 7 18 19 16 27 -3 7 -3 15 -1 18 8 8 44 -4 44 -14z m-781 -10 c84 -13
193 -52 258 -91 56 -34 140 -98 129 -98 -4 0 -28 16 -54 35 -125 97 -287 148
-467 148 -222 1 -390 -68 -575 -237 -37 -34 -35 -31 10 17 99 105 253 189 404
222 75 16 209 18 295 4z m311 -20 c24 -19 24 -19 -17 1 -24 11 -43 22 -43 24
0 9 37 -6 60 -25z m-1332 -33 c24 -22 29 -36 10 -36 -22 1 -81 57 -73 70 7 12
16 7 63 -34z m1122 -4 c107 -35 198 -86 250 -139 l35 -36 -45 35 c-236 186
-570 217 -829 77 -62 -33 -144 -90 -171 -119 -3 -3 -17 -14 -31 -25 -14 -11 0
4 30 34 149 146 326 213 546 207 102 -3 134 -8 215 -34z m-1169 -13 c33 -23
39 -62 12 -91 -22 -25 -52 -23 -88 6 -36 29 -26 47 14 23 37 -22 57 -22 65 0
6 16 -26 52 -46 53 -13 0 -9 30 3 30 6 0 24 -9 40 -21z m1144 -9 c94 -29 190
-81 245 -131 44 -40 44 -40 5 -11 -324 241 -738 203 -1018 -92 l-39 -41 42 52
c90 113 253 208 421 243 76 16 265 5 344 -20z m685 -1 c0 -5 -9 -9 -20 -9 -22
0 -27 16 -7 23 15 5 27 -1 27 -14z m104 -13 l21 -27 -35 -29 c-43 -36 -55 -37
-76 -5 -17 26 -11 65 10 65 8 0 19 7 26 15 16 20 29 16 54 -19z m-1584 11 c0
-2 -17 -19 -37 -38 l-38 -34 34 38 c33 34 41 42 41 34z m815 -35 c92 -32 197
-97 250 -153 20 -21 8 -14 -34 19 -162 130 -361 182 -559 148 -157 -27 -266
-83 -392 -200 -50 -47 -56 -51 -26 -17 110 126 222 188 421 235 11 3 72 4 135
2 98 -3 128 -7 205 -34z m-19 -25 c38 -13 86 -32 105 -42 40 -21 138 -95 159
-120 8 -10 -17 6 -55 35 -214 163 -473 192 -712 80 -71 -33 -116 -64 -188
-129 l-50 -46 50 53 c83 89 219 163 350 192 22 5 92 7 155 5 90 -2 130 -9 186
-28z m-50 -17 c43 -11 101 -32 129 -47 48 -24 165 -111 165 -121 0 -2 -15 7
-32 22 -56 45 -170 105 -243 128 -90 29 -259 31 -349 4 -93 -28 -181 -75 -259
-138 l-72 -59 65 61 c156 145 386 203 596 150z m-1176 -62 c0 -26 14 -22 30 7
8 15 17 22 23 16 9 -9 -37 -91 -52 -91 -5 0 -14 21 -21 46 l-13 46 -14 -26
c-8 -15 -18 -24 -24 -21 -9 6 -1 26 30 74 l15 24 13 -29 c7 -16 12 -37 13 -46z
m1156 37 c34 -8 86 -25 115 -38 55 -25 159 -96 159 -109 0 -5 -21 8 -47 28
-113 86 -215 118 -373 118 -93 0 -127 -4 -180 -23 -77 -27 -168 -77 -230 -127
-43 -35 -43 -35 5 10 56 52 182 119 265 140 72 19 209 19 286 1z m-1166 -130
c0 -8 -4 -15 -10 -15 -5 0 -10 7 -10 15 0 8 5 15 10 15 6 0 10 -7 10 -15z
m-45 -19 c41 -17 48 -41 10 -33 -24 4 -24 3 -10 -13 21 -23 19 -40 -5 -40 -11
0 -20 -4 -20 -10 0 -5 5 -10 10 -10 6 0 10 -7 10 -15 0 -8 -1 -15 -3 -15 -8 0
-97 32 -97 35 0 23 17 35 48 35 l35 0 -21 23 c-25 27 -29 57 -7 57 9 0 31 -7
50 -14z m112 -348 c-3 -8 -6 -5 -6 6 -1 11 2 17 5 13 3 -3 4 -12 1 -19z m30
-25 c-3 -10 -5 -2 -5 17 0 19 2 27 5 18 2 -10 2 -26 0 -35z m30 -15 c-2 -13
-4 -5 -4 17 -1 22 1 32 4 23 2 -10 2 -28 0 -40z m30 -5 c-3 -10 -5 -2 -5 17 0
19 2 27 5 18 2 -10 2 -26 0 -35z m60 -25 c-2 -13 -4 -5 -4 17 -1 22 1 32 4 23
2 -10 2 -28 0 -40z m-131 -248 c76 -350 346 -628 705 -727 93 -26 367 -25 462
1 147 39 272 104 390 201 72 59 175 181 208 247 11 22 23 38 25 35 8 -8 -54
-105 -113 -179 -108 -133 -275 -249 -437 -303 -169 -56 -375 -64 -541 -21
-279 72 -504 254 -633 511 -64 128 -104 303 -101 443 2 62 2 60 10 -33 5 -55
16 -134 25 -175z m187 5 c26 -85 56 -154 90 -208 141 -220 364 -351 617 -364
166 -8 307 26 448 108 77 46 218 189 265 269 20 35 37 61 37 56 0 -5 -12 -30
-27 -55 -193 -334 -589 -481 -948 -354 -308 110 -519 409 -513 728 l1 90 7
-110 c4 -60 14 -132 23 -160z m44 -38 c39 -112 82 -184 162 -269 142 -152 336
-238 539 -238 243 0 457 108 614 310 15 19 28 32 28 29 0 -14 -94 -126 -138
-165 -177 -155 -414 -222 -634 -180 -237 46 -417 177 -531 386 -56 103 -78
189 -82 315 l-4 110 8 -105 c6 -75 17 -130 38 -193z m-188 -9 c79 -291 291
-519 585 -628 132 -50 346 -65 494 -34 265 55 499 229 636 474 20 36 36 61 36
56 0 -18 -72 -140 -115 -195 -133 -171 -302 -285 -510 -344 -101 -28 -306 -35
-416 -12 -295 59 -530 241 -659 509 -59 123 -89 238 -95 371 l-4 100 13 -111
c8 -61 23 -145 35 -186z m1 162 c12 -114 53 -250 101 -341 109 -204 322 -374
554 -441 69 -20 101 -23 240 -22 144 0 169 3 248 27 253 78 455 252 568 489
16 35 27 52 23 38 -11 -42 -54 -121 -106 -197 -128 -186 -338 -322 -568 -368
-122 -25 -303 -17 -423 19 -356 106 -604 402 -647 771 -5 50 -10 101 -10 114
0 50 8 13 20 -89z m120 -145 c81 -260 269 -450 535 -541 73 -25 93 -27 235
-28 150 -1 158 0 250 32 169 58 316 167 415 306 41 59 52 70 35 36 -22 -43
-95 -133 -146 -180 -97 -90 -223 -160 -354 -196 -100 -28 -310 -26 -414 4
-234 67 -434 240 -531 457 -38 87 -65 209 -64 290 l2 70 8 -90 c4 -49 17 -121
29 -160z m147 168 c-2 -16 -4 -3 -4 27 0 30 2 43 4 28 2 -16 2 -40 0 -55z
m-30 5 c-2 -13 -4 -5 -4 17 -1 22 1 32 4 23 2 -10 2 -28 0 -40z m-26 -157 c91
-286 343 -482 640 -498 245 -14 453 81 618 282 20 24 28 30 21 15 -20 -40
-171 -182 -232 -218 -131 -77 -306 -114 -450 -94 -183 24 -297 81 -429 212
-69 69 -94 103 -128 170 -47 97 -82 222 -80 289 1 40 3 37 10 -24 5 -38 18
-99 30 -134z m-181 136 c0 -63 36 -199 74 -282 121 -261 368 -450 649 -495 95
-16 278 -8 362 15 231 64 434 226 547 439 42 80 52 83 12 3 -153 -302 -454
-488 -791 -487 -399 1 -748 277 -842 666 -21 87 -32 196 -19 188 4 -3 8 -24 8
-47z m177 -9 c-2 -13 -4 -3 -4 22 0 25 2 35 4 23 2 -13 2 -33 0 -45z m-117
-151 c61 -202 199 -377 380 -483 269 -158 623 -150 879 21 115 76 182 147 279
291 10 16 11 15 1 -6 -41 -87 -167 -229 -260 -291 -105 -71 -226 -119 -354
-140 -91 -14 -254 -7 -340 16 -91 24 -252 108 -326 169 -162 135 -285 366
-294 556 l-4 75 9 -68 c5 -38 18 -101 30 -140z m744 177 c6 -15 4 -15 -11 -3
-10 7 -20 15 -22 16 -2 2 3 3 11 3 9 0 19 -7 22 -16z m-1378 -100 c32 -188
120 -481 176 -589 73 -140 251 -336 408 -447 281 -199 639 -299 962 -268 62 6
120 12 128 14 8 1 33 6 55 10 74 14 219 59 284 88 35 15 66 27 68 25 5 -6
-122 -61 -197 -85 -127 -42 -251 -63 -410 -69 -131 -4 -175 -2 -285 16 -71 12
-137 25 -145 28 -8 3 -49 18 -90 33 -178 66 -261 110 -396 210 -99 74 -205
176 -267 258 -22 28 -43 52 -48 52 -5 0 -9 5 -9 11 0 6 -14 30 -31 55 -91 133
-194 426 -219 624 -19 157 -9 179 16 34z m819 -50 c37 -108 71 -162 159 -250
64 -64 99 -90 166 -123 193 -95 392 -95 589 0 70 34 101 57 170 126 46 47 74
71 61 53 -73 -102 -201 -193 -335 -237 -68 -22 -97 -26 -195 -26 -134 0 -230
26 -339 90 -153 91 -288 283 -305 433 -3 25 -3 36 0 25 3 -11 16 -52 29 -91z
m2 74 c-3 -7 -5 -2 -5 12 0 14 2 19 5 13 2 -7 2 -19 0 -25z m2 -168 c96 -186
253 -309 461 -361 69 -18 103 -21 185 -16 181 10 316 68 449 196 52 50 69 62
49 36 -137 -177 -392 -278 -619 -246 -166 23 -285 83 -404 201 -98 98 -166
226 -184 345 -4 24 3 9 17 -35 13 -41 34 -95 46 -120z m76 -16 c47 -81 159
-185 250 -231 112 -57 162 -68 295 -68 94 0 128 4 188 24 84 27 169 80 251
153 35 32 29 25 -16 -20 -143 -142 -344 -204 -543 -168 -192 34 -364 164 -448
336 -23 47 -44 99 -47 115 -3 17 5 2 18 -31 13 -34 36 -83 52 -110z m725 146
c0 -5 -4 -10 -10 -10 -5 0 -10 5 -10 10 0 6 5 10 10 10 6 0 10 -4 10 -10z
m-663 -150 c38 -56 117 -130 180 -170 182 -116 467 -104 641 27 17 13 32 20
32 16 0 -4 5 -1 10 7 7 11 10 11 10 2 0 -8 5 -10 13 -6 6 4 9 4 5 0 -3 -4 -9
-8 -12 -8 -2 1 -20 -14 -39 -32 -73 -69 -238 -126 -362 -126 -90 0 -208 30
-287 72 -71 38 -161 115 -151 130 3 6 1 8 -5 4 -17 -11 -123 144 -122 179 1 5
8 -2 16 -17 21 -40 27 -34 9 8 -22 54 -17 56 9 4 12 -25 36 -66 53 -90z m453
120 c0 -5 -4 -10 -10 -10 -5 0 -10 5 -10 10 0 6 5 10 10 10 6 0 10 -4 10 -10z
m67 -26 c-3 -3 -12 -4 -19 -1 -8 3 -5 6 6 6 11 1 17 -2 13 -5z m-50 -10 c-3
-3 -12 -4 -19 -1 -8 3 -5 6 6 6 11 1 17 -2 13 -5z m118 -70 c-27 -20 -90 -36
-128 -32 -30 4 -31 4 -7 10 14 3 52 12 85 21 33 8 62 15 65 15 3 1 -4 -5 -15
-14z m-197 -19 c14 -14 -10 -14 -39 0 l-34 15 34 -5 c19 -3 37 -7 39 -10z
m853 -22 c-12 -20 -14 -14 -5 12 4 9 9 14 11 11 3 -2 0 -13 -6 -23z m100 0
c-12 -20 -14 -14 -5 12 4 9 9 14 11 11 3 -2 0 -13 -6 -23z m-241 -13 c-6 -11
-13 -20 -16 -20 -2 0 0 9 6 20 6 11 13 20 16 20 2 0 0 -9 -6 -20z m-100 6 c0
-2 -8 -10 -17 -17 -16 -13 -17 -12 -4 4 13 16 21 21 21 13z m60 -15 c-5 -11
-15 -23 -21 -27 -6 -3 -3 5 6 20 20 30 30 35 15 7z m70 -1 c-6 -11 -13 -20
-16 -20 -2 0 0 9 6 20 6 11 13 20 16 20 2 0 0 -9 -6 -20z m231 -7 c-12 -20
-14 -14 -5 12 4 9 9 14 11 11 3 -2 0 -13 -6 -23z m-18 -38 c-3 -9 -8 -14 -10
-11 -3 3 -2 9 2 15 9 16 15 13 8 -4z m408 -86 c-11 -24 -20 -41 -20 -37 -1 12
31 89 35 85 3 -2 -4 -24 -15 -48z m-2217 -78 c-20 -16 -20 -16 8 -39 18 -15
28 -33 28 -51 0 -41 -13 -46 -25 -10 -6 18 -17 35 -23 37 -8 2 -8 -6 2 -30 15
-34 7 -68 -16 -68 -23 0 -58 44 -58 72 0 35 17 37 26 3 3 -13 13 -30 22 -37
16 -14 15 -11 -8 35 -11 22 -11 33 -2 47 6 11 9 25 7 32 -6 14 34 37 49 30 5
-3 0 -12 -10 -21z m1955 14 c5 -5 11 -26 13 -44 3 -34 2 -35 -32 -35 -33 -1
-35 1 -41 39 -4 22 -5 42 -4 45 6 10 53 6 64 -5z m210 -56 c-84 -168 -250
-369 -396 -482 -58 -44 -155 -105 -226 -141 -20 -11 -37 -23 -37 -28 0 -5 -5
-6 -11 -3 -5 4 -27 -4 -47 -18 -86 -58 -255 -97 -457 -104 -317 -11 -573 61
-830 232 -135 90 -325 280 -308 307 3 7 1 8 -5 4 -10 -6 -69 71 -101 133 -11
19 -11 22 0 16 9 -6 10 -3 6 8 -20 50 -13 43 52 -56 240 -360 667 -597 1076
-597 66 1 154 5 195 11 41 5 109 14 150 18 154 18 362 111 536 241 179 134
298 277 406 487 12 24 23 41 26 39 2 -2 -11 -33 -29 -67z m-3004 21 c3 -5 1
-10 -4 -10 -6 0 -11 5 -11 10 0 6 2 10 4 10 3 0 8 -4 11 -10z m795 3 c0 -5
-14 -16 -30 -25 -30 -17 -37 -14 -21 11 5 7 14 10 20 7 6 -4 11 -2 11 3 0 6 5
11 10 11 6 0 10 -3 10 -7z m1940 -95 c14 -50 2 -68 -30 -45 -12 9 -28 13 -35
11 -7 -3 -14 3 -17 13 -6 24 1 45 14 37 5 -3 16 3 24 15 20 28 31 20 44 -31z
m-2630 -188 c18 -36 38 -68 44 -72 6 -4 8 -8 4 -8 -4 0 13 -34 38 -75 25 -41
50 -72 55 -69 6 3 9 0 7 -8 -2 -7 15 -38 37 -67 22 -30 50 -67 62 -84 43 -58
179 -193 191 -189 7 2 12 -5 12 -17 0 -14 5 -19 15 -15 8 4 15 1 15 -6 0 -17
30 -39 53 -40 10 0 22 -11 27 -25 7 -18 14 -23 26 -18 13 5 16 3 11 -10 -3 -9
-2 -17 3 -17 6 0 18 -8 29 -19 13 -13 27 -17 47 -13 27 5 28 4 14 -13 -14 -17
-13 -17 9 -10 15 5 21 4 17 -3 -3 -6 -2 -13 3 -16 5 -4 12 -2 16 4 11 18 23
11 18 -10 -9 -35 13 -21 24 15 8 25 8 35 0 35 -6 0 -7 3 -4 6 4 4 18 -1 31
-10 14 -9 27 -12 31 -7 3 6 -2 14 -11 19 -10 5 -14 14 -9 21 5 9 11 7 21 -6 8
-11 13 -13 14 -5 0 6 4 12 10 12 5 0 7 -7 4 -15 -4 -8 -1 -15 5 -15 6 0 11
-13 11 -28 0 -15 4 -32 9 -37 5 -6 5 -19 1 -30 -7 -20 -7 -20 -14 1 -5 16 -12
20 -26 17 -11 -3 -20 -1 -20 5 0 5 9 12 20 15 13 3 18 10 14 21 -3 9 -10 13
-15 10 -5 -3 -7 -9 -4 -14 3 -5 -4 -11 -15 -15 -29 -9 -24 -25 10 -31 25 -5
29 -11 26 -30 -3 -13 -2 -23 2 -22 4 1 24 -2 44 -6 44 -9 62 -2 49 22 -9 19
-4 42 10 42 5 0 9 -7 9 -15 0 -11 11 -15 38 -15 21 0 43 -5 50 -12 16 -16 15
-58 0 -59 -7 0 -4 -4 7 -8 11 -5 21 -8 22 -7 1 1 -2 18 -7 39 -4 21 -4 39 1
43 5 3 10 -3 10 -13 1 -17 1 -17 6 0 6 22 44 19 50 -3 4 -13 3 -13 -6 0 -5 8
-13 11 -17 7 -4 -4 0 -15 9 -25 10 -10 14 -22 10 -27 -5 -4 2 -4 14 -1 12 4
24 2 29 -5 4 -7 3 -9 -3 -6 -6 4 -17 -1 -24 -10 -8 -9 -9 -14 -3 -10 18 10 37
-20 32 -48 -3 -14 -1 -25 3 -25 5 0 9 11 9 24 0 28 16 43 23 24 4 -10 8 -9 16
2 5 8 13 11 18 7 4 -5 1 -12 -7 -17 -13 -8 -13 -11 1 -26 24 -23 86 -27 99 -6
8 14 9 12 8 -10 -3 -32 -14 -34 -77 -12 -24 8 -46 12 -49 9 -8 -8 4 -16 30
-20 12 -1 50 -10 82 -19 135 -36 273 -49 481 -43 230 6 366 29 569 98 65 22
121 38 124 35 5 -6 -59 -36 -76 -36 -4 0 -26 -8 -48 -19 -86 -40 -314 -86
-504 -100 -202 -16 -309 -8 -548 38 -145 28 -325 93 -481 173 -357 182 -672
495 -846 837 -34 67 -105 241 -105 256 1 5 11 -15 24 -45 13 -30 38 -84 56
-120z m834 148 c9 -12 16 -29 16 -37 0 -19 -49 -71 -67 -71 -20 0 -16 11 14
42 25 27 26 29 10 45 -16 16 -19 16 -46 -5 -35 -25 -41 -27 -41 -10 0 18 52
57 77 58 12 0 29 -10 37 -22z m1736 -30 c13 -25 13 -31 0 -55 -18 -32 -50 -43
-50 -18 0 9 -4 14 -9 10 -11 -6 -41 21 -41 38 0 7 7 23 16 35 22 31 63 26 84
-10z m-1688 -78 c19 -14 28 -16 36 -8 8 8 15 9 22 2 7 -7 -3 -23 -29 -48 -39
-38 -39 -38 -65 -21 -35 23 -46 45 -35 73 10 27 38 28 71 2z m88 -33 c0 -7 -6
-19 -12 -26 -13 -14 -10 -14 38 6 14 5 16 0 12 -32 -4 -37 -4 -37 13 -16 38
47 41 5 3 -45 -37 -48 -58 -46 -50 6 7 43 1 48 -30 25 -48 -36 -59 -3 -18 57
27 39 44 48 44 25z m141 -108 c-2 -8 -3 -36 -2 -63 2 -35 -1 -47 -11 -44 -7 3
-14 18 -16 35 -3 30 -4 31 -29 18 -27 -14 -43 -12 -43 5 0 5 18 19 40 30 22
11 40 25 40 31 0 6 6 9 13 6 6 -2 10 -11 8 -18z m77 -19 l32 -20 -25 -50 c-36
-71 -61 -68 -31 4 13 32 13 34 -10 45 -25 11 -33 41 -11 41 6 0 27 -9 45 -20z
m830 -17 c20 -5 23 -10 18 -34 -3 -16 -1 -29 4 -29 6 0 10 5 10 12 0 6 2 9 5
6 3 -3 1 -17 -4 -31 -8 -20 -7 -30 5 -42 9 -8 12 -15 7 -15 -4 0 -13 -11 -19
-24 -10 -21 -9 -23 10 -19 49 10 -13 -17 -84 -36 -91 -25 -180 -28 -180 -6 0
24 -39 18 -51 -7 -9 -22 -9 -22 -5 2 4 20 1 26 -13 26 -16 0 -17 -4 -10 -24 5
-14 5 -21 0 -18 -5 4 -12 0 -15 -6 -4 -7 -5 -4 -2 8 2 12 -1 29 -6 39 -8 14
-12 15 -19 4 -6 -10 -9 -8 -9 9 0 15 4 21 12 16 7 -4 8 -3 4 4 -4 6 -14 8 -24
5 -14 -5 -14 -3 3 17 11 13 14 20 8 16 -9 -5 -13 0 -13 16 0 18 -2 20 -10 8
-13 -20 -12 -6 1 24 6 13 19 24 28 24 32 -1 178 23 246 41 85 23 75 22 103 14z
m-661 -18 c0 -8 -4 -12 -9 -9 -4 3 -8 9 -8 15 0 5 4 9 8 9 5 0 9 -7 9 -15z
m-50 -19 c15 -12 35 -21 43 -19 10 3 10 1 -2 -7 -12 -7 -16 -20 -14 -40 2 -19
-1 -27 -9 -24 -6 3 -18 -2 -25 -11 -17 -21 -42 -19 -74 6 -32 25 -35 70 -6 99
26 26 52 25 87 -4z m105 -8 c-5 -7 -13 -28 -17 -46 -6 -29 -45 -67 -45 -43 0
5 8 12 18 16 15 6 14 8 -5 16 -13 4 -23 14 -23 21 0 9 3 9 10 -2 6 -10 10 -11
10 -2 0 6 7 12 16 12 10 0 14 6 11 14 -3 8 -1 17 6 20 22 8 30 6 19 -6z
m-1197 -98 c3 -5 1 -10 -4 -10 -6 0 -11 5 -11 10 0 6 2 10 4 10 3 0 8 -4 11
-10z m1116 -13 c-6 -8 -8 -17 -4 -20 3 -4 1 -7 -5 -7 -15 0 -15 13 0 28 16 16
23 15 9 -1z m-77 -26 c-2 -3 -12 3 -22 13 -16 17 -16 18 5 5 12 -7 20 -15 17
-18z m-704 -2 c0 -6 -4 -7 -10 -4 -5 3 -10 11 -10 16 0 6 5 7 10 4 6 -3 10
-11 10 -16z m740 0 c0 -6 -4 -7 -10 -4 -5 3 -10 11 -10 16 0 6 5 7 10 4 6 -3
10 -11 10 -16z m62 -15 c-9 -16 -10 -14 -9 8 1 15 6 23 11 18 4 -4 4 -16 -2
-26z m-1042 16 c0 -5 -4 -10 -10 -10 -5 0 -10 5 -10 10 0 6 5 10 10 10 6 0 10
-4 10 -10z m1367 -52 c-3 -8 -6 -5 -6 6 -1 11 2 17 5 13 3 -3 4 -12 1 -19z
m97 7 c3 -9 0 -15 -8 -15 -7 0 -13 7 -13 15 0 8 4 15 8 15 4 0 9 -7 13 -15z
m-1484 -15 c0 -5 -5 -10 -11 -10 -5 0 -7 5 -4 10 3 6 8 10 11 10 2 0 4 -4 4
-10z m2130 -10 c0 -5 -5 -10 -11 -10 -5 0 -7 5 -4 10 3 6 8 10 11 10 2 0 4 -4
4 -10z m-2100 -19 c0 -6 -4 -13 -10 -16 -5 -3 -10 1 -10 9 0 9 5 16 10 16 6 0
10 -4 10 -9z m200 -21 c0 -5 -7 -10 -16 -10 -8 0 -12 5 -9 10 3 6 10 10 16 10
5 0 9 -4 9 -10z m-30 -60 c0 -5 -5 -10 -11 -10 -5 0 -7 5 -4 10 3 6 8 10 11
10 2 0 4 -4 4 -10z m50 -27 c0 -5 -5 -15 -10 -23 -8 -12 -10 -11 -10 8 0 12 5
22 10 22 6 0 10 -3 10 -7z m2742 -25 c-7 -7 -12 -8 -12 -2 0 14 12 26 19 19 2
-3 -1 -11 -7 -17z m-2822 -2 c0 -2 -7 -7 -16 -10 -8 -3 -12 -2 -9 4 6 10 25
14 25 6z m105 -6 c-3 -5 -11 -10 -16 -10 -6 0 -7 5 -4 10 3 6 11 10 16 10 6 0
7 -4 4 -10z m30 0 c3 -5 1 -10 -4 -10 -6 0 -11 5 -11 10 0 6 2 10 4 10 3 0 8
-4 11 -10z m-98 -6 c-3 -3 -12 -4 -19 -1 -8 3 -5 6 6 6 11 1 17 -2 13 -5z m33
-18 c0 -3 -4 -8 -10 -11 -5 -3 -10 -1 -10 4 0 6 5 11 10 11 6 0 10 -2 10 -4z
m36 -31 c-8 -23 -25 -9 -19 16 4 13 9 17 16 10 5 -5 7 -17 3 -26z m94 -1 c0
-8 -5 -12 -10 -9 -6 4 -8 11 -5 16 9 14 15 11 15 -7z m320 -9 c0 -12 -29 -3
-34 10 -4 13 -2 14 14 5 11 -6 20 -13 20 -15z m-446 -24 c-7 -8 -35 9 -29 19
4 6 11 5 20 -3 7 -6 11 -14 9 -16z m153 2 c-2 -21 -8 -29 -25 -31 -12 -2 -22
1 -22 7 0 6 6 8 14 5 8 -3 16 4 20 20 8 34 15 33 13 -1z m239 20 c-10 -10 -46
-11 -46 -1 0 4 12 8 27 8 14 0 23 -3 19 -7z m94 -13 c0 -5 -4 -10 -9 -10 -6 0
-13 5 -16 10 -3 6 1 10 9 10 9 0 16 -4 16 -10z m-422 -19 c3 -8 -1 -12 -9 -9
-7 2 -15 10 -17 17 -3 8 1 12 9 9 7 -2 15 -10 17 -17z m477 -1 c3 -5 1 -10 -4
-10 -6 0 -11 5 -11 10 0 6 2 10 4 10 3 0 8 -4 11 -10z m-285 -20 c0 -5 -4 -10
-10 -10 -5 0 -10 5 -10 10 0 6 5 10 10 10 6 0 10 -4 10 -10z m330 0 c0 -5 -7
-7 -15 -4 -8 4 -15 8 -15 10 0 2 7 4 15 4 8 0 15 -4 15 -10z m-370 -21 c0 -11
-4 -17 -10 -14 -5 3 -10 13 -10 21 0 8 5 14 10 14 6 0 10 -9 10 -21z m-105 1
c-3 -5 -11 -10 -16 -10 -6 0 -7 5 -4 10 3 6 11 10 16 10 6 0 7 -4 4 -10z m331
-15 c2 -21 -1 -24 -12 -14 -11 9 -11 15 -3 25 15 18 14 18 15 -11z m209 15 c3
-5 2 -10 -4 -10 -5 0 -13 5 -16 10 -3 6 -2 10 4 10 5 0 13 -4 16 -10z m-245
-8 c0 -13 -12 -22 -22 -16 -10 6 -1 24 13 24 5 0 9 -4 9 -8z m-140 -23 c0 -6
-4 -7 -10 -4 -5 3 -10 11 -10 16 0 6 5 7 10 4 6 -3 10 -11 10 -16z m-95 1 c-3
-5 -14 -10 -23 -9 -14 0 -13 2 3 9 27 11 27 11 20 0z m48 -7 c-7 -2 -13 -11
-13 -19 0 -17 -16 -19 -26 -3 -7 13 13 29 36 28 10 0 11 -2 3 -6z m224 -60
c-11 -10 -27 8 -27 30 l0 21 16 -22 c9 -13 14 -26 11 -29z m533 33 c0 -11 -19
-15 -25 -6 -3 5 1 10 9 10 9 0 16 -2 16 -4z m-582 -50 c-11 -20 -11 -20 -19
-1 -14 37 -11 47 10 33 16 -10 18 -16 9 -32z m87 34 c-3 -5 -11 -10 -16 -10
-6 0 -7 5 -4 10 3 6 11 10 16 10 6 0 7 -4 4 -10z m111 -20 c8 0 14 -4 14 -10
0 -5 -4 -10 -10 -10 -5 0 -10 -10 -10 -22 0 -34 -9 -16 -14 28 -2 21 -2 33 1
27 2 -7 11 -13 19 -13z m1894 5 c-7 -8 -18 -15 -24 -15 -6 0 -2 7 8 15 25 19
32 19 16 0z m-1985 -15 c-4 -6 6 -10 22 -11 27 0 27 -1 6 -11 -27 -13 -64 9
-41 23 17 11 20 11 13 -1z m-65 -10 c0 -5 -4 -10 -10 -10 -5 0 -10 5 -10 10 0
6 5 10 10 10 6 0 10 -4 10 -10z m250 -62 c-1 -28 -2 -30 -11 -15 -6 10 -8 25
-5 33 9 24 16 16 16 -18z m-295 -8 c3 -5 1 -10 -4 -10 -6 0 -11 5 -11 10 0 6
2 10 4 10 3 0 8 -4 11 -10z m352 -42 c-3 -8 -6 -5 -6 6 -1 11 2 17 5 13 3 -3
4 -12 1 -19z m126 -7 c2 -10 1 -25 -4 -32 -6 -10 -9 -4 -9 19 0 36 5 42 13 13z
m1272 9 c-3 -5 -11 -10 -16 -10 -6 0 -7 5 -4 10 3 6 11 10 16 10 6 0 7 -4 4
-10z m-1445 -20 c0 -5 -5 -10 -11 -10 -5 0 -7 5 -4 10 3 6 8 10 11 10 2 0 4
-4 4 -10z m1410 4 c0 -6 -65 -34 -77 -34 -9 1 58 39 70 40 4 0 7 -2 7 -6z
m-1335 -14 c3 -5 1 -10 -4 -10 -6 0 -11 5 -11 10 0 6 2 10 4 10 3 0 8 -4 11
-10z m155 -50 c0 -5 -4 -10 -10 -10 -5 0 -10 5 -10 10 0 6 5 10 10 10 6 0 10
-4 10 -10z"/>
<path d="M13224 4696 c-15 -12 -17 -18 -8 -33 15 -24 35 -27 59 -8 19 15 19
15 -7 9 -30 -7 -40 12 -13 22 8 4 15 10 15 15 0 14 -24 11 -46 -5z"/>
<path d="M13067 4618 c-15 -12 -15 -15 3 -38 l19 -25 22 22 c19 18 20 24 9 37
-15 19 -31 20 -53 4z"/>
<path d="M12892 4498 c-15 -15 -16 -45 -1 -53 16 -11 56 3 63 21 13 34 -35 59
-62 32z"/>
<path d="M14650 4269 c7 -11 14 -18 17 -15 8 8 -5 36 -17 36 -7 0 -7 -6 0 -21z"/>
<path d="M14606 4262 c-7 -12 22 -38 31 -28 4 3 0 14 -9 22 -9 10 -18 12 -22
6z"/>
<path d="M12800 1931 c0 -5 6 -12 13 -14 7 -3 5 -6 -5 -6 -20 -1 -26 -51 -7
-51 5 0 7 5 3 11 -4 7 3 19 16 29 l23 18 -21 11 c-13 7 -22 8 -22 2z"/>
<path d="M13031 1814 c0 -11 3 -14 6 -6 3 7 2 16 -1 19 -3 4 -6 -2 -5 -13z"/>
<path d="M13050 1819 c0 -5 5 -7 10 -4 6 3 10 8 10 11 0 2 -4 4 -10 4 -5 0
-10 -5 -10 -11z"/>
<path d="M12990 1800 c0 -5 5 -10 10 -10 6 0 10 5 10 10 0 6 -4 10 -10 10 -5
0 -10 -4 -10 -10z"/>
<path d="M12950 1780 c0 -6 7 -10 15 -10 8 0 15 2 15 4 0 2 -7 6 -15 10 -8 3
-15 1 -15 -4z"/>
<path d="M13016 1767 c-18 -13 -18 -14 -1 -21 22 -8 37 4 26 22 -6 9 -11 9
-25 -1z"/>
<path d="M13126 1753 c-6 -14 -5 -15 5 -6 7 7 10 15 7 18 -3 3 -9 -2 -12 -12z"/>
<path d="M13085 1720 c4 -6 11 -8 16 -5 14 9 11 15 -7 15 -8 0 -12 -5 -9 -10z"/>
<path d="M13184 1719 c-3 -6 -2 -15 3 -20 5 -5 9 -1 9 11 0 23 -2 24 -12 9z"/>
<path d="M14517 2813 c-12 -11 -8 -23 8 -23 8 0 15 7 15 15 0 16 -12 20 -23 8z"/>
<path d="M14550 2775 c-7 -9 -8 -15 -2 -15 5 0 12 7 16 15 3 8 4 15 2 15 -2 0
-9 -7 -16 -15z"/>
<path d="M12855 2710 c10 -11 23 -20 28 -20 6 0 2 9 -8 20 -10 11 -23 20 -28
20 -6 0 -2 -9 8 -20z"/>
<path d="M13810 2373 c0 -5 5 -15 10 -23 8 -12 10 -11 10 8 0 12 -4 22 -10 22
-5 0 -10 -3 -10 -7z"/>
<path d="M13247 2503 c-22 -21 16 -59 47 -47 22 8 20 31 -3 44 -23 12 -35 13
-44 3z m53 -17 c0 -2 -7 -7 -16 -10 -8 -3 -12 -2 -9 4 6 10 25 14 25 6z"/>
<path d="M24608 4844 c-2 -1 -50 -4 -108 -5 -58 -2 -125 -6 -150 -10 -121 -21
-249 -42 -280 -47 -19 -2 -44 -11 -56 -18 -11 -8 -23 -11 -26 -8 -6 5 -97 -18
-143 -37 -11 -4 -45 -13 -75 -20 -30 -7 -62 -15 -70 -20 -8 -4 -46 -19 -83
-34 -37 -15 -72 -36 -78 -46 -12 -24 -11 -569 2 -589 7 -11 11 -12 17 -3 4 6
20 17 35 22 17 7 25 15 21 23 -4 6 -3 8 4 5 5 -4 45 11 87 33 42 22 83 40 92
40 8 0 11 5 8 11 -4 6 -1 9 6 8 15 -2 42 6 71 22 10 5 27 9 38 9 11 0 20 5 20
11 0 5 4 8 9 5 5 -4 11 -1 13 4 2 6 18 13 37 15 54 7 214 45 235 56 13 8 16 7
11 -1 -5 -9 -1 -10 13 -6 38 13 98 17 217 17 193 0 234 -6 313 -43 39 -18 68
-29 65 -23 -14 24 111 -97 144 -140 12 -15 25 -41 28 -57 4 -15 11 -30 16 -33
5 -4 9 -26 9 -51 0 -24 5 -44 10 -44 13 0 13 -106 0 -130 -13 -24 -62 -40
-121 -40 -27 0 -49 -4 -49 -10 0 -5 -24 -10 -53 -10 -29 0 -80 -5 -113 -11
-32 -6 -75 -12 -94 -14 -19 -2 -87 -10 -150 -20 -63 -9 -131 -18 -150 -19 -19
-2 -48 -6 -65 -9 -16 -4 -52 -9 -79 -11 -58 -6 -193 -35 -221 -48 -11 -5 -30
-10 -43 -11 -12 0 -22 -5 -22 -10 0 -4 -4 -5 -10 -2 -5 3 -20 0 -32 -7 -13 -6
-28 -13 -34 -14 -7 -1 -51 -21 -98 -44 -115 -56 -253 -161 -240 -182 3 -4 -2
-5 -10 -2 -9 3 -21 -5 -33 -23 -9 -15 -22 -31 -28 -35 -5 -4 -7 -8 -3 -8 3 0
-6 -13 -22 -30 -26 -28 -84 -134 -85 -155 0 -5 -7 -26 -16 -45 -20 -42 -40
-155 -32 -176 3 -8 0 -20 -5 -27 -13 -16 -18 -175 -8 -272 11 -99 53 -255 69
-255 6 0 8 -3 4 -6 -5 -5 26 -69 58 -123 24 -39 143 -161 157 -161 5 0 6 -5 2
-12 -4 -6 -3 -8 3 -5 6 4 18 -2 28 -13 25 -27 163 -102 175 -95 6 3 10 2 10
-2 0 -12 114 -44 174 -49 28 -3 70 -10 94 -16 38 -10 185 -7 282 6 76 10 326
93 315 104 -3 3 17 16 45 29 33 15 48 27 44 35 -5 8 -2 9 10 5 10 -4 15 -3 11
3 -3 6 2 13 12 17 31 11 84 54 78 64 -3 5 1 6 9 3 10 -4 16 -1 16 9 0 8 14 27
31 41 17 14 27 26 23 26 -4 0 1 8 12 19 28 27 54 60 54 68 0 11 63 63 75 62 6
0 5 -3 -2 -6 -8 -3 -3 -12 13 -27 l26 -22 -1 -182 -2 -182 401 0 400 1 -1 962
c0 529 -5 987 -9 1017 -28 180 -42 246 -60 287 -11 25 -17 50 -13 56 4 6 1 7
-7 2 -9 -5 -10 -2 -6 11 6 22 -54 140 -96 188 -10 11 -18 25 -18 32 0 7 -42
54 -93 106 -101 101 -132 128 -147 128 -6 0 -34 16 -63 34 -28 19 -79 44 -112
56 -33 12 -69 25 -80 30 -34 16 -176 47 -265 59 -79 10 -287 21 -292 15z m435
-1626 c9 -35 -2 -308 -14 -353 -26 -97 -55 -163 -97 -221 -24 -34 -45 -66 -45
-71 -1 -4 -15 -17 -32 -29 -16 -11 -52 -36 -80 -56 -141 -101 -437 -117 -564
-31 -20 14 -44 22 -55 19 -13 -3 -16 -2 -8 6 12 12 -11 43 -26 34 -4 -2 -8 4
-9 14 -1 10 -13 36 -27 58 -14 22 -22 43 -19 46 4 3 2 6 -3 6 -11 0 -12 10
-16 137 -2 50 0 89 5 86 4 -2 7 3 7 11 0 26 43 109 74 144 53 59 170 118 281
141 28 6 163 24 300 41 138 17 255 33 260 35 6 2 22 4 36 4 20 1 28 -5 32 -21z
m-1003 -118 c0 -5 -2 -10 -4 -10 -3 0 -8 5 -11 10 -3 6 -1 10 4 10 6 0 11 -4
11 -10z"/>
<path d="M17790 4823 c-93 -21 -174 -46 -182 -57 -3 -5 -14 -10 -25 -12 -36
-5 -62 -16 -67 -31 -3 -8 -11 -11 -16 -8 -6 4 -32 -8 -58 -27 -26 -18 -59 -39
-74 -47 -16 -8 -28 -20 -28 -27 0 -7 -5 -16 -12 -20 -7 -5 -8 -3 -3 7 8 12 6
12 -9 0 -12 -10 -13 -16 -6 -21 11 -7 -24 -24 -42 -21 -5 1 -8 -7 -8 -16 0 -9
-18 -35 -40 -57 -22 -23 -60 -62 -84 -88 -25 -28 -52 -48 -64 -48 -39 0 -45
33 -44 224 1 116 -2 184 -9 192 -9 11 -93 14 -408 14 -218 -1 -406 -3 -419 -6
l-22 -6 2 -2142 3 -2141 418 0 c360 0 419 2 427 15 6 9 10 324 10 816 0 714 1
803 16 832 l16 32 25 -20 c14 -11 30 -20 35 -20 5 0 21 -14 35 -30 13 -17 29
-27 34 -24 5 3 8 2 7 -3 -2 -4 23 -33 54 -63 80 -77 87 -82 101 -74 6 4 9 4 5
-1 -11 -11 60 -58 74 -49 7 4 8 3 4 -4 -7 -11 24 -29 63 -35 9 -2 31 -11 49
-21 19 -10 36 -15 39 -13 2 3 19 1 36 -4 119 -34 301 -44 447 -24 14 2 41 6
60 8 53 8 90 17 150 39 52 19 74 25 93 27 5 1 5 5 2 11 -3 5 2 9 12 8 15 -2
108 37 123 52 3 3 12 6 20 8 8 2 21 12 29 22 7 11 17 20 22 20 19 0 79 46 74
57 -2 7 1 10 8 8 16 -6 80 53 72 65 -3 6 1 10 9 10 9 0 16 5 16 10 0 6 5 10
10 10 20 0 53 39 46 55 -3 9 -2 13 4 10 11 -7 19 0 63 53 15 19 25 37 22 42
-3 4 1 10 8 13 7 3 22 23 32 46 11 22 23 41 28 41 4 0 7 7 7 15 0 8 4 15 9 15
5 0 13 10 17 23 4 12 17 45 29 72 112 252 164 493 170 800 3 152 -16 442 -31
467 -3 4 -7 21 -9 38 -9 71 -27 140 -37 140 -6 0 -9 2 -6 5 8 8 -10 82 -28
121 -13 28 -17 40 -23 74 -1 3 -6 -2 -12 -10 -9 -13 -10 -12 -5 3 6 18 -31
109 -46 115 -11 5 -73 124 -70 135 1 5 -1 7 -5 4 -8 -4 -73 59 -67 66 9 8
-155 157 -173 157 -8 0 -16 7 -19 15 -4 8 -10 12 -15 9 -5 -3 -9 0 -9 5 0 6
-6 11 -13 11 -8 0 -22 9 -31 19 -10 10 -33 22 -52 25 -19 4 -34 11 -34 17 0 6
-5 7 -11 3 -6 -3 -14 -2 -18 3 -9 15 -140 56 -157 49 -10 -4 -13 -2 -8 6 5 7
2 9 -7 6 -8 -3 -26 0 -40 8 -35 19 -400 17 -489 -3z m105 -675 c39 -12 76 -22
82 -21 7 0 11 -3 8 -7 -3 -4 4 -10 15 -13 11 -3 24 -6 28 -7 4 -2 13 -11 21
-22 8 -12 21 -18 31 -15 14 4 17 0 13 -12 -4 -9 -3 -13 2 -9 4 4 32 -30 61
-75 30 -45 58 -87 63 -93 6 -7 7 -14 5 -17 -3 -3 2 -19 11 -36 17 -33 49 -177
61 -271 9 -68 9 -249 0 -310 -3 -25 -8 -68 -10 -96 -3 -29 -7 -62 -10 -75 -3
-13 -8 -36 -10 -51 -3 -16 -14 -55 -26 -88 -12 -33 -18 -65 -14 -71 4 -7 3 -9
-3 -6 -12 8 -31 -39 -27 -66 1 -9 -1 -15 -6 -12 -12 8 -33 -23 -24 -37 4 -7 4
-10 -1 -6 -4 4 -26 -19 -49 -50 -24 -32 -64 -75 -89 -97 -26 -22 -45 -45 -43
-51 2 -6 -6 -10 -17 -9 -12 1 -40 -7 -62 -18 -146 -73 -394 -72 -531 2 -40 22
-56 26 -70 18 -16 -9 -17 -8 -6 5 17 21 -7 44 -28 25 -10 -9 -11 -9 -6 1 9 16
-38 67 -53 57 -7 -3 -8 0 -5 9 3 9 -4 25 -18 39 -12 12 -24 26 -25 30 -2 4
-22 44 -45 90 -23 45 -43 93 -45 107 -2 14 -6 32 -10 40 -12 30 -14 69 -19
307 -6 272 6 394 51 505 19 47 22 64 14 75 -9 10 -9 12 3 8 9 -4 22 9 38 37
26 48 78 115 126 163 33 33 127 95 145 95 5 0 7 5 3 12 -4 6 -3 8 4 4 6 -3 23
-1 39 5 107 44 305 47 428 7z m-825 -1928 c0 -5 -5 -10 -11 -10 -5 0 -7 5 -4
10 3 6 8 10 11 10 2 0 4 -4 4 -10z"/>
<path d="M27475 4830 c-16 -4 -48 -8 -69 -9 -22 0 -62 -7 -90 -15 -93 -27
-191 -50 -198 -48 -5 1 -8 -2 -8 -7 0 -5 -15 -13 -32 -17 -37 -8 -117 -44
-135 -60 -6 -6 -26 -17 -45 -24 -18 -8 -57 -31 -85 -52 -66 -48 -193 -176
-193 -194 0 -7 -6 -17 -14 -21 -21 -12 -79 -131 -70 -144 4 -7 3 -9 -3 -6 -10
7 -23 -29 -45 -123 -14 -62 -17 -324 -4 -355 4 -11 10 -35 12 -53 2 -18 10
-47 19 -64 8 -17 15 -38 15 -47 0 -12 71 -124 89 -141 4 -3 7 -11 9 -19 3 -16
120 -131 132 -131 5 0 15 -6 22 -13 41 -40 205 -130 220 -121 4 3 8 1 8 -4 0
-10 116 -62 138 -62 6 0 12 -5 12 -10 0 -6 6 -10 13 -8 6 1 22 -3 35 -10 12
-7 28 -12 35 -11 6 1 29 -5 49 -14 21 -10 44 -17 52 -17 20 0 69 -22 78 -35 4
-5 8 -7 8 -2 0 4 14 0 30 -8 17 -9 36 -15 43 -13 6 1 32 -7 57 -18 25 -11 57
-24 73 -27 15 -4 27 -12 27 -17 0 -6 7 -10 16 -10 9 0 43 -21 76 -46 33 -25
57 -39 53 -32 -3 7 0 5 8 -4 8 -10 18 -14 22 -10 5 4 5 1 1 -5 -4 -7 0 -25 8
-40 52 -97 30 -237 -46 -295 -121 -92 -272 -123 -558 -113 -137 5 -183 12
-300 45 -36 10 -78 21 -95 26 -16 4 -32 8 -35 9 -3 1 -22 9 -44 18 -21 9 -41
17 -45 17 -3 0 -19 7 -35 15 -15 8 -32 13 -36 10 -5 -3 -10 -1 -12 3 -3 9
-143 82 -157 82 -5 0 -8 -140 -7 -322 l1 -322 25 -12 c50 -24 76 -33 150 -53
78 -20 187 -42 230 -46 14 -1 45 -6 70 -10 25 -4 63 -9 85 -11 22 -1 72 -7
110 -13 88 -13 326 -14 381 -1 23 5 75 12 117 14 42 3 88 8 103 12 15 4 34 8
43 8 38 4 178 39 202 52 14 7 56 23 95 35 38 13 90 35 115 50 25 15 55 30 66
33 12 4 33 18 47 33 15 14 29 24 32 21 8 -8 72 56 66 66 -3 5 -1 6 5 3 15 -9
87 69 78 84 -5 8 -4 10 4 5 11 -7 41 15 41 30 0 4 6 15 14 23 32 36 120 224
109 234 -2 3 4 8 15 11 11 4 23 19 26 34 12 54 17 268 8 327 -13 84 -14 87
-39 110 -13 11 -23 26 -23 32 0 19 -39 103 -55 119 -8 9 -15 22 -15 30 0 8 -4
14 -8 14 -5 0 -16 16 -25 35 -9 20 -25 39 -34 42 -10 4 -38 28 -63 54 -25 25
-55 50 -67 53 -13 4 -23 12 -23 18 0 6 -3 9 -6 5 -4 -3 -14 2 -23 13 -20 23
-142 87 -239 125 -40 16 -72 33 -72 38 0 6 -3 8 -6 4 -4 -3 -29 3 -58 14 -59
23 -58 23 -111 34 -22 4 -56 16 -75 26 -19 11 -40 19 -47 19 -7 0 -37 11 -67
25 -30 14 -64 25 -76 25 -14 0 -19 4 -14 12 5 8 2 9 -10 5 -17 -7 -44 9 -110
61 -16 13 -35 21 -42 18 -8 -3 -11 0 -8 9 3 7 -3 18 -13 24 -23 12 -77 107
-68 120 3 5 0 13 -6 16 -14 9 -3 77 22 132 21 45 71 105 91 109 7 1 34 11 59
23 91 41 157 52 311 52 81 0 151 -2 156 -5 4 -2 30 -7 58 -11 74 -8 207 -36
227 -46 10 -5 22 -7 27 -4 5 3 11 1 15 -5 3 -5 15 -10 26 -10 11 0 17 -4 14
-10 -3 -5 0 -7 9 -4 8 3 43 -10 78 -29 34 -18 69 -32 76 -30 6 3 12 -1 12 -9
0 -10 3 -9 10 2 5 9 8 139 7 313 l-2 299 -50 19 c-59 23 -58 22 -49 7 6 -10 5
-10 -8 0 -20 16 -106 34 -325 67 -109 16 -540 20 -598 5z"/>
<path d="M17227 4523 c-4 -3 -7 -11 -7 -17 0 -6 5 -5 12 2 6 6 9 14 7 17 -3 3
-9 2 -12 -2z"/>
<path d="M2838 3481 c-145 -84 -215 -195 -258 -409 -80 -399 -300 -686 -640
-837 -468 -207 -734 -428 -1055 -875 -199 -276 -408 -455 -725 -620 l-145 -75
-3 -125 c-3 -136 13 -240 49 -329 12 -28 23 -50 25 -48 2 1 -3 30 -11 62 -19
74 -30 256 -21 319 l7 47 97 46 c322 154 550 344 763 638 153 211 243 317 354
422 182 173 361 295 590 402 208 98 277 136 354 197 197 155 322 367 396 667
41 165 43 173 103 292 46 93 80 142 141 207 19 21 33 39 30 42 -2 2 -25 -8
-51 -23z"/>
<path d="M8040 3430 c0 -5 15 -28 33 -52 67 -88 233 -118 457 -83 255 39 257
39 335 28 42 -6 99 -22 127 -36 29 -15 53 -25 55 -24 9 10 -45 72 -83 96 -90
58 -191 62 -459 21 -197 -31 -304 -24 -397 23 -38 20 -68 31 -68 27z"/>
<path d="M4408 3264 c-5 -4 -8 -28 -8 -53 0 -152 -87 -428 -192 -614 -35 -62
-47 -92 -40 -99 13 -13 82 -2 82 13 0 6 4 8 9 5 5 -3 8 0 8 7 -1 6 14 44 32
82 85 179 124 356 119 548 -2 65 -6 115 -10 111z"/>
<path d="M6880 2978 c0 -21 78 -79 165 -123 87 -43 244 -95 290 -95 28 0 63
36 48 51 -5 5 -61 23 -124 40 -129 33 -196 57 -272 95 -65 34 -107 46 -107 32z"/>
<path d="M8730 2879 c0 -66 -32 -178 -91 -320 -28 -68 -66 -167 -84 -219 -107
-308 -213 -484 -373 -621 -57 -49 -194 -126 -265 -149 -25 -8 -42 -21 -48 -37
-14 -37 -11 -142 6 -207 24 -92 33 -96 27 -13 -2 41 -2 95 2 119 l7 44 70 24
c71 24 183 87 243 136 43 36 140 149 182 212 50 74 110 199 160 332 24 63 44
118 44 123 0 4 24 65 54 135 82 190 114 314 107 418 0 12 -10 32 -21 45 l-19
24 -1 -46z"/>
<path d="M15551 2504 c0 -11 3 -14 6 -6 3 7 2 16 -1 19 -3 4 -6 -2 -5 -13z"/>
</g>
</svg>
